<?xml version="1.0" encoding="UTF-8" standalone="no"?>
<svg
   xmlns:dc="http://purl.org/dc/elements/1.1/"
   xmlns:cc="http://creativecommons.org/ns#"
   xmlns:rdf="http://www.w3.org/1999/02/22-rdf-syntax-ns#"
   xmlns:svg="http://www.w3.org/2000/svg"
   xmlns="http://www.w3.org/2000/svg"
   xmlns:sodipodi="http://sodipodi.sourceforge.net/DTD/sodipodi-0.dtd"
   xmlns:inkscape="http://www.inkscape.org/namespaces/inkscape"
   width="1024"
   height="600"
   viewBox="0 0 1024 600"
   version="1.1"
   id="svg8"
   inkscape:version="1.0.2-2 (e86c870879, 2021-01-15)"
   sodipodi:docname="domino_cai.svg">
  <defs
     id="defs2" />
  <sodipodi:namedview
     id="base"
     pagecolor="#ffffff"
     bordercolor="#666666"
     borderopacity="1.0"
     inkscape:pageopacity="0.0"
     inkscape:pageshadow="2"
     inkscape:zoom="0.98994949"
     inkscape:cx="422.20155"
     inkscape:cy="376.19874"
     inkscape:document-units="px"
     inkscape:current-layer="layer1"
     inkscape:document-rotation="0"
     showgrid="false"
     units="px"
     inkscape:window-width="1920"
     inkscape:window-height="1027"
     inkscape:window-x="1358"
     inkscape:window-y="-8"
     inkscape:window-maximized="1" />
  <metadata
     id="metadata5">
    <rdf:RDF>
      <cc:Work
         rdf:about="">
        <dc:format>image/svg+xml</dc:format>
        <dc:type
           rdf:resource="http://purl.org/dc/dcmitype/StillImage" />
        <dc:title></dc:title>
      </cc:Work>
    </rdf:RDF>
  </metadata>
  <g
     inkscape:label="Layer 1"
     inkscape:groupmode="layer"
     id="layer1">
    <rect
       style="fill:#ffffff;fill-opacity:1;stroke-width:8.44057;stroke-linecap:round;stroke-linejoin:round"
       id="rect847"
       width="24.68465"
       height="153.04483"
       x="674.29321"
       y="-192.58316"
       ry="3.3163946"
       inkscape:transform-center-y="-36.264382"
       transform="rotate(61.674018)"
       inkscape:transform-center-x="-67.277186" />
    <rect
       style="fill:#ffffff;fill-opacity:1;stroke-width:8.44057;stroke-linecap:round;stroke-linejoin:round"
       id="rect851"
       width="24.68465"
       height="153.04483"
       x="719.76263"
       y="-138.86072"
       ry="3.3163946"
       inkscape:transform-center-y="-47.049634"
       transform="rotate(52.004285)"
       inkscape:transform-center-x="-60.230035" />
    <rect
       style="fill:#ffffff;fill-opacity:1;stroke-width:8.44057;stroke-linecap:round;stroke-linejoin:round"
       id="rect853"
       width="24.68465"
       height="153.04483"
       x="753.41461"
       y="10.843203"
       ry="3.3163946"
       inkscape:transform-center-y="-61.572492"
       transform="rotate(36.329712)"
       inkscape:transform-center-x="-45.278641" />
    <rect
       style="fill:#ffffff;fill-opacity:1;stroke-width:8.44057;stroke-linecap:round;stroke-linejoin:round"
       id="rect855"
       width="24.68465"
       height="153.04483"
       x="728.0564"
       y="237.48689"
       ry="3.3163946"
       inkscape:transform-center-y="-73.245941"
       transform="rotate(16.592864)"
       inkscape:transform-center-x="-21.825639" />
    <rect
       style="fill:#ffffff;fill-opacity:1;stroke-width:8.44057;stroke-linecap:round;stroke-linejoin:round"
       id="rect857"
       width="24.68465"
       height="153.04483"
       x="668.81226"
       y="432.6633"
       ry="3.3163946" />
    <rect
       style="fill:#ffffff;fill-opacity:1;stroke-width:8.44057;stroke-linecap:round;stroke-linejoin:round"
       id="rect859"
       width="24.68465"
       height="153.04483"
       x="749.802"
       y="432.6633"
       ry="3.3163946" />
    <rect
       style="fill:#ffffff;fill-opacity:1;stroke-width:8.44057;stroke-linecap:round;stroke-linejoin:round"
       id="rect861"
       width="24.68465"
       height="153.04483"
       x="828.69714"
       y="432.6633"
       ry="3.3163946" />
    <rect
       style="fill:#ffffff;fill-opacity:1;stroke-width:8.44057;stroke-linecap:round;stroke-linejoin:round"
       id="rect863"
       width="24.68465"
       height="153.04483"
       x="908.98871"
       y="432.6633"
       ry="3.3163946" />
    <rect
       style="fill:#ffffff;fill-opacity:1;stroke-width:8.44057;stroke-linecap:round;stroke-linejoin:round"
       id="rect865"
       width="24.68465"
       height="153.04483"
       x="986.48755"
       y="432.6633"
       ry="3.3163946" />
    <g
       id="g960"
       transform="rotate(-18.694669,238.46458,558.78264)">
      <path
         id="path869"
         style="fill:#ffcea9;fill-opacity:1;stroke:none;stroke-width:1.38234px;stroke-linecap:butt;stroke-linejoin:miter;stroke-opacity:1"
         d="M 218.13281 2.3613281 C 215.635 2.3016439 213.22778 2.6858058 211.07422 3.4511719 C 208.20281 4.4716715 205.77957 6.1704063 204.18945 8.4023438 C 197.82895 17.330068 187.40345 58.904291 181.04297 67.832031 C 174.68248 76.759762 142.25248 121.0919 136.38086 134.54492 C 130.50926 147.99796 109.40138 174.94469 102.60156 190.27539 C 95.801719 205.60607 86.515959 224.38458 84.177734 225.17578 C 81.83951 225.96698 31.377373 252.42138 20.980469 266.36328 C 18.080294 270.25231 10.1371 279.46873 0 290.79492 L 0 573.48242 C 20.148137 572.76651 68.232459 569.9983 89.908203 559.4043 C 117.63631 545.85218 159.82625 553.46524 196.77734 542.52539 C 233.72844 531.58554 239.6832 536.86939 257.7207 520.86328 C 275.75818 504.85717 327.07932 460.90825 300.50391 453.22266 C 285.41649 448.85939 275.45224 451.17415 269.79492 452.3125 C 258.84511 455.75531 237.26299 455.75893 228.65234 455.61133 C 221.82566 456.46149 196.59788 468.50273 179.25586 466.10547 C 161.75934 463.68685 144.62143 471.57125 136.3125 463.95898 C 136.3125 463.95898 121.65208 432.96005 115.66016 419.87305 C 109.66823 406.78605 107.92383 366.2001 124.59375 358.47461 C 125.11469 358.2332 125.66229 358.01505 126.23438 357.82031 C 142.66306 352.23113 189.31413 350.33635 203.88086 347.56641 C 203.88086 347.56641 243.21707 348.13456 258.95898 339.44922 C 274.7009 330.76389 307.79708 349.72933 330.58594 346.42188 C 353.3748 343.1144 381.71468 358.10801 398.09375 353.45312 C 414.47279 348.79826 449.69839 330.83561 418.10352 321.37109 C 386.50865 311.90657 363.01865 301.45581 339.83398 294.79297 C 316.64932 288.13011 278.79708 276.40943 247.87109 278.64258 C 233.30137 279.69464 210.5888 279.67057 189.14258 278.97656 C 187.81467 278.73346 182.77344 277.80664 182.77344 277.80664 L 197.68164 260.25586 C 197.68164 260.25586 225.86347 243.42316 239.48438 217.44531 C 253.10526 191.46747 262.27878 183.14918 275.03516 173.09961 C 287.79152 163.05004 302.67819 140.81379 311.53516 131.5625 C 320.39213 122.31121 358.33026 88.106959 355.43945 70.322266 C 352.54866 52.537569 337.17666 36.372093 322.08203 47.212891 C 306.98744 58.053661 219.28244 134.63646 212.60547 142.62891 C 205.9285 150.62134 198.74798 150.96509 196.10742 153.94336 C 193.46687 156.92163 220.25687 108.24644 226.74023 91.980469 C 233.22358 75.714502 247.2401 33.968455 238.73047 16.521484 C 233.9438 6.7075574 225.62625 2.5403808 218.13281 2.3613281 z "
         transform="rotate(18.694669,238.46458,558.78264)" />
      <path
         style="fill:#ffbd8c;fill-opacity:1;stroke:none;stroke-width:1.38234px;stroke-linecap:butt;stroke-linejoin:miter;stroke-opacity:1"
         d="m 214.55347,242.19869 61.21793,32.58373 19.74772,-11.84862 z"
         id="path867" />
      <path
         style="fill:#ffbd8c;fill-opacity:1;stroke:none;stroke-width:1.38234px;stroke-linecap:butt;stroke-linejoin:miter;stroke-opacity:1"
         d="m 328.8434,161.23304 c 0,0 -23.45043,12.09548 -38.26121,14.81078 -14.81079,2.71532 -90.83951,17.52611 -90.83951,17.52611 0,0 31.10265,-28.6342 35.5459,-34.31166 4.44323,-5.67748 93.55482,1.97477 93.55482,1.97477 z"
         id="path874" />
      <path
         style="fill:#ffbd8c;fill-opacity:1;stroke:none;stroke-width:1.38234px;stroke-linecap:butt;stroke-linejoin:miter;stroke-opacity:1"
         d="m 413.08384,157.00445 c 0,0 21.29472,1.39637 27.5784,21.6438 l -6.63278,5.5855 c 0,0 -2.09456,-17.80377 -20.94562,-27.2293 z"
         id="path882" />
      <path
         style="fill:#ffbd8c;fill-opacity:1;stroke:none;stroke-width:1.38234px;stroke-linecap:butt;stroke-linejoin:miter;stroke-opacity:1"
         d="M 363.16345,221.23768 343.9633,203.783 l 15.70922,22.34199 z"
         id="path884" />
    </g>
    <text
       xml:space="preserve"
       style="font-style:normal;font-weight:normal;font-size:40px;line-height:1.25;font-family:sans-serif;fill:#ffffff;fill-opacity:1;stroke:none"
       x="347.61041"
       y="554.6059"
       id="text888"><tspan
         sodipodi:role="line"
         id="tspan886"
         x="347.61041"
         y="554.6059">1</tspan></text>
    <text
       xml:space="preserve"
       style="font-style:normal;font-weight:normal;font-size:40px;line-height:1.25;font-family:sans-serif;fill:#ffffff;fill-opacity:1;stroke:none"
       x="507.21988"
       y="493.8916"
       id="text892"><tspan
         sodipodi:role="line"
         id="tspan890"
         x="507.21988"
         y="493.8916">2</tspan></text>
    <text
       xml:space="preserve"
       style="font-style:normal;font-weight:normal;font-size:40px;line-height:1.25;font-family:sans-serif;fill:#ffffff;fill-opacity:1;stroke:none"
       x="569.16479"
       y="463.8916"
       id="text896"><tspan
         sodipodi:role="line"
         id="tspan894"
         x="569.16479"
         y="463.8916">3</tspan></text>
    <text
       xml:space="preserve"
       style="font-style:normal;font-weight:normal;font-size:40px;line-height:1.25;font-family:sans-serif;fill:#ffffff;fill-opacity:1;stroke:none"
       x="622.4516"
       y="439.03445"
       id="text900"><tspan
         sodipodi:role="line"
         id="tspan898"
         x="622.4516"
         y="439.03445">4</tspan></text>
    <text
       xml:space="preserve"
       style="font-style:normal;font-weight:normal;font-size:40px;line-height:1.25;font-family:sans-serif;fill:#ffffff;fill-opacity:1;stroke:none;"
       x="668.43713"
       y="429.03445"
       id="text904"><tspan
         sodipodi:role="line"
         id="tspan902"
         x="668.43713"
         y="429.03445">5</tspan></text>
    <text
       xml:space="preserve"
       style="font-style:normal;font-weight:normal;font-size:40px;line-height:1.25;font-family:sans-serif;fill:#ffffff;fill-opacity:1;stroke:none;"
       x="749.75439"
       y="429.03445"
       id="text908"><tspan
         sodipodi:role="line"
         id="tspan906"
         x="749.75439"
         y="429.03445">6</tspan></text>
    <text
       xml:space="preserve"
       style="font-style:normal;font-weight:normal;font-size:40px;line-height:1.25;font-family:sans-serif;fill:#ffffff;fill-opacity:1;stroke:none;"
       x="829.01074"
       y="429.03445"
       id="text912"><tspan
         sodipodi:role="line"
         id="tspan910"
         x="829.01074"
         y="429.03445">7</tspan></text>
    <text
       xml:space="preserve"
       style="font-style:normal;font-weight:normal;font-size:40px;line-height:1.25;font-family:sans-serif;fill:#ffffff;fill-opacity:1;stroke:none;"
       x="908.79248"
       y="429.03445"
       id="text916"><tspan
         sodipodi:role="line"
         id="tspan914"
         x="908.79248"
         y="429.03445">8</tspan></text>
    <text
       xml:space="preserve"
       style="font-style:normal;font-weight:normal;font-size:40px;line-height:1.25;font-family:sans-serif;fill:#ffffff;fill-opacity:1;stroke:none;"
       x="985.56409"
       y="429.03445"
       id="text920"><tspan
         sodipodi:role="line"
         id="tspan918"
         x="985.56409"
         y="429.03445">9</tspan></text>
  </g>
</svg>
