<?xml version="1.0" encoding="UTF-8" standalone="no"?>
<svg
   xmlns:dc="http://purl.org/dc/elements/1.1/"
   xmlns:cc="http://creativecommons.org/ns#"
   xmlns:rdf="http://www.w3.org/1999/02/22-rdf-syntax-ns#"
   xmlns:svg="http://www.w3.org/2000/svg"
   xmlns="http://www.w3.org/2000/svg"
   xmlns:sodipodi="http://sodipodi.sourceforge.net/DTD/sodipodi-0.dtd"
   xmlns:inkscape="http://www.inkscape.org/namespaces/inkscape"
   width="1024"
   height="600"
   viewBox="0 0 1024 600"
   version="1.1"
   id="svg8"
   inkscape:version="1.0.2-2 (e86c870879, 2021-01-15)"
   sodipodi:docname="domino_distancias.svg">
  <defs
     id="defs2" />
  <sodipodi:namedview
     id="base"
     pagecolor="#ffffff"
     bordercolor="#666666"
     borderopacity="1.0"
     inkscape:pageopacity="0.0"
     inkscape:pageshadow="2"
     inkscape:zoom="0.7"
     inkscape:cx="328.18156"
     inkscape:cy="365.55147"
     inkscape:document-units="px"
     inkscape:current-layer="layer1"
     inkscape:document-rotation="0"
     showgrid="false"
     units="px"
     inkscape:window-width="1920"
     inkscape:window-height="1027"
     inkscape:window-x="1358"
     inkscape:window-y="-8"
     inkscape:window-maximized="1" />
  <metadata
     id="metadata5">
    <rdf:RDF>
      <cc:Work
         rdf:about="">
        <dc:format>image/svg+xml</dc:format>
        <dc:type
           rdf:resource="http://purl.org/dc/dcmitype/StillImage" />
        <dc:title />
      </cc:Work>
    </rdf:RDF>
  </metadata>
  <g
     inkscape:label="Layer 1"
     inkscape:groupmode="layer"
     id="layer1">
    <path
       id="path869"
       style="fill:#ffcea9;fill-opacity:1;stroke:none;stroke-width:1.38234px;stroke-linecap:butt;stroke-linejoin:miter;stroke-opacity:1"
       d="m 390.51683,23.970572 c -3.04701,0.0463 -5.88613,0.87939 -8.10774,2.4839 -8.88648,6.418 -32.08967,42.45797 -40.97614,48.87599 -8.88647,6.41801 -53.81368,38.014738 -63.68754,48.875978 -9.87385,10.86126 -38.50653,29.62195 -49.86146,41.96429 -11.35495,12.34232 -26.1665,27.15273 -28.63496,27.15273 -2.46846,0 -58.74986,8.88493 -73.06695,18.75879 -14.31711,9.87386 -110.586466,63.19311 -126.87833421,66.15526 L -1.190373,493.48842 c 0,0 68.128466,22.21695 98.737435,18.26741 30.608968,-3.94956 68.131968,16.78363 106.640018,18.26471 38.50805,1.48108 42.45681,8.3947 64.673,-0.98546 22.21619,-9.38017 84.91519,-34.56004 62.20532,-50.35822 -22.70988,-15.79818 -37.52221,-6.91016 -33.07898,-15.30295 4.44324,-8.39278 39.0033,-43.4469 39.99068,-54.30816 0.98739,-10.86124 -1.48147,-100.21967 -7.40578,-103.67552 -5.92431,-3.45586 -54.79954,-30.60857 -54.79954,-30.60857 l 19.74696,-11.8471 c 0,0 32.09118,-6.9113 53.31999,-27.15272 21.22879,-20.24142 32.58335,-25.18067 47.88784,-30.61129 15.30448,-5.43062 36.53289,-21.72249 47.88783,-27.64681 11.35495,-5.92431 58.25502,-26.16495 61.21717,-43.9379 2.96216,-17.77295 -6.418,-38.012808 -24.19096,-32.58218 -17.77294,5.43062 -125.39764,49.86299 -134.28411,55.29361 -8.88647,5.43062 -15.79703,3.45469 -19.25288,5.42946 -3.45585,1.97477 37.52106,-35.54629 48.87601,-48.87599 11.35493,-13.329708 38.01244,-48.380768 35.54396,-67.634788 -1.85135,-14.44052 -12.86572,-21.38424 -22.00676,-21.24538 z M 196.56801,332.45117 c 18.7336,-0.0308 52.96129,28.17212 65.87445,26.25906 13.3297,-1.97477 0.49331,35.54666 6.41762,39.00251 5.92433,3.45586 -18.26626,33.07629 -13.32933,36.53214 4.93692,3.45585 13.3297,25.17794 6.91171,23.69688 -6.41802,-1.48108 -34.56003,1.97554 -50.35822,-5.92355 -15.79818,-7.89908 -34.55736,-5.92315 -39.98799,-15.79701 0,0 -3.95108,-34.06483 -5.43216,-48.38192 -1.48109,-14.31709 9.87426,-53.31884 28.14089,-55.29361 0.57083,-0.0617 1.15871,-0.0935 1.76303,-0.0946 z" />
    <rect
       style="fill:#ffffff;fill-opacity:1;stroke-width:8.44057;stroke-linecap:round;stroke-linejoin:round"
       id="rect847"
       width="24.68465"
       height="153.04483"
       x="348.34427"
       y="440.6633"
       ry="3.3163946" />
    <rect
       style="fill:#ffffff;fill-opacity:1;stroke-width:8.44057;stroke-linecap:round;stroke-linejoin:round"
       id="rect851"
       width="24.68465"
       height="153.04483"
       x="427.23944"
       y="440.6633"
       ry="3.3163946" />
    <rect
       style="fill:#ffffff;fill-opacity:1;stroke-width:8.44057;stroke-linecap:round;stroke-linejoin:round"
       id="rect853"
       width="24.68465"
       height="153.04483"
       x="507.53098"
       y="440.6633"
       ry="3.3163946" />
    <rect
       style="fill:#ffffff;fill-opacity:1;stroke-width:8.44057;stroke-linecap:round;stroke-linejoin:round"
       id="rect855"
       width="24.68465"
       height="153.04483"
       x="585.72797"
       y="440.6633"
       ry="3.3163946" />
    <rect
       style="fill:#ffffff;fill-opacity:1;stroke-width:8.44057;stroke-linecap:round;stroke-linejoin:round"
       id="rect857"
       width="24.68465"
       height="153.04483"
       x="668.81226"
       y="440.6633"
       ry="3.3163946" />
    <rect
       style="fill:#ffffff;fill-opacity:1;stroke-width:8.44057;stroke-linecap:round;stroke-linejoin:round"
       id="rect859"
       width="24.68465"
       height="153.04483"
       x="749.802"
       y="440.6633"
       ry="3.3163946" />
    <rect
       style="fill:#ffffff;fill-opacity:1;stroke-width:8.44057;stroke-linecap:round;stroke-linejoin:round"
       id="rect861"
       width="24.68465"
       height="153.04483"
       x="828.69714"
       y="440.6633"
       ry="3.3163946" />
    <rect
       style="fill:#ffffff;fill-opacity:1;stroke-width:8.44057;stroke-linecap:round;stroke-linejoin:round"
       id="rect863"
       width="24.68465"
       height="153.04483"
       x="908.98871"
       y="440.6633"
       ry="3.3163946" />
    <rect
       style="fill:#ffffff;fill-opacity:1;stroke-width:8.44057;stroke-linecap:round;stroke-linejoin:round"
       id="rect865"
       width="24.68465"
       height="153.04483"
       x="986.48755"
       y="440.6633"
       ry="3.3163946" />
    <path
       style="fill:#ffbd8c;fill-opacity:1;stroke:none;stroke-width:1.38234px;stroke-linecap:butt;stroke-linejoin:miter;stroke-opacity:1"
       d="m 214.55347,242.19869 61.21793,32.58373 19.74772,-11.84862 z"
       id="path867" />
    <path
       style="fill:#ffbd8c;fill-opacity:1;stroke:none;stroke-width:1.38234px;stroke-linecap:butt;stroke-linejoin:miter;stroke-opacity:1"
       d="m 328.8434,161.23304 c 0,0 -23.45043,12.09548 -38.26121,14.81078 -14.81079,2.71532 -90.83951,17.52611 -90.83951,17.52611 0,0 31.10265,-28.6342 35.5459,-34.31166 4.44323,-5.67748 93.55482,1.97477 93.55482,1.97477 z"
       id="path874" />
    <path
       style="fill:#ffbd8c;fill-opacity:1;stroke:none;stroke-width:1.38234px;stroke-linecap:butt;stroke-linejoin:miter;stroke-opacity:1"
       d="m 262.97356,358.78058 c 0,0 25.83293,-14.31284 27.22932,-23.38927 0,0 -2.79276,15.36011 -21.64382,28.62567 0,0 -0.11667,-5.4129 -5.5855,-5.2364 z"
       id="path876" />
    <path
       style="fill:#ffbd8c;fill-opacity:1;stroke:none;stroke-width:1.38234px;stroke-linecap:butt;stroke-linejoin:miter;stroke-opacity:1"
       d="m 268.61285,397.8354 h 43.81525 l -43.0747,4.56666 c 0,0 1.23422,-3.94954 -0.74055,-4.56666 z"
       id="path878" />
    <path
       style="fill:#ffbd8c;fill-opacity:1;stroke:none;stroke-width:1.38234px;stroke-linecap:butt;stroke-linejoin:miter;stroke-opacity:1"
       d="m 265.157,456.21461 c 0,0 17.5261,12.34232 32.58374,7.40539 0,0 -19.99457,13.08285 -41.22337,-5.92433 0,0 8.14594,1.4811 8.63963,-1.48106 z"
       id="path880" />
    <path
       style="fill:#ffbd8c;fill-opacity:1;stroke:none;stroke-width:1.38234px;stroke-linecap:butt;stroke-linejoin:miter;stroke-opacity:1"
       d="m 413.08384,157.00445 c 0,0 21.29472,1.39637 27.5784,21.6438 l -6.63278,5.5855 c 0,0 -2.09456,-17.80377 -20.94562,-27.2293 z"
       id="path882" />
    <path
       style="fill:#ffbd8c;fill-opacity:1;stroke:none;stroke-width:1.38234px;stroke-linecap:butt;stroke-linejoin:miter;stroke-opacity:1"
       d="M 363.16345,221.23768 343.9633,203.783 l 15.70922,22.34199 z"
       id="path884" />
    <text
       xml:space="preserve"
       style="font-style:normal;font-weight:normal;font-size:40px;line-height:1.25;font-family:sans-serif;fill:#ffffff;fill-opacity:1;stroke:none;"
       x="347.61041"
       y="429.03445"
       id="text888"><tspan
         sodipodi:role="line"
         id="tspan886"
         x="347.61041"
         y="429.03445">1</tspan></text>
    <text
       xml:space="preserve"
       style="font-style:normal;font-weight:normal;font-size:40px;line-height:1.25;font-family:sans-serif;fill:#ffffff;fill-opacity:1;stroke:none;"
       x="426.50558"
       y="429.03445"
       id="text892"><tspan
         sodipodi:role="line"
         id="tspan890"
         x="426.50558"
         y="429.03445">2</tspan></text>
    <text
       xml:space="preserve"
       style="font-style:normal;font-weight:normal;font-size:40px;line-height:1.25;font-family:sans-serif;fill:#ffffff;fill-opacity:1;stroke:none;"
       x="506.30765"
       y="429.03445"
       id="text896"><tspan
         sodipodi:role="line"
         id="tspan894"
         x="506.30765"
         y="429.03445">3</tspan></text>
    <text
       xml:space="preserve"
       style="font-style:normal;font-weight:normal;font-size:40px;line-height:1.25;font-family:sans-serif;fill:#ffffff;fill-opacity:1;stroke:none;"
       x="584.59448"
       y="429.03445"
       id="text900"><tspan
         sodipodi:role="line"
         id="tspan898"
         x="584.59448"
         y="429.03445">4</tspan></text>
    <text
       xml:space="preserve"
       style="font-style:normal;font-weight:normal;font-size:40px;line-height:1.25;font-family:sans-serif;fill:#ffffff;fill-opacity:1;stroke:none;"
       x="668.43713"
       y="429.03445"
       id="text904"><tspan
         sodipodi:role="line"
         id="tspan902"
         x="668.43713"
         y="429.03445">5</tspan></text>
    <text
       xml:space="preserve"
       style="font-style:normal;font-weight:normal;font-size:40px;line-height:1.25;font-family:sans-serif;fill:#ffffff;fill-opacity:1;stroke:none;"
       x="749.75439"
       y="429.03445"
       id="text908"><tspan
         sodipodi:role="line"
         id="tspan906"
         x="749.75439"
         y="429.03445">6</tspan></text>
    <text
       xml:space="preserve"
       style="font-style:normal;font-weight:normal;font-size:40px;line-height:1.25;font-family:sans-serif;fill:#ffffff;fill-opacity:1;stroke:none;"
       x="829.01074"
       y="429.03445"
       id="text912"><tspan
         sodipodi:role="line"
         id="tspan910"
         x="829.01074"
         y="429.03445">7</tspan></text>
    <text
       xml:space="preserve"
       style="font-style:normal;font-weight:normal;font-size:40px;line-height:1.25;font-family:sans-serif;fill:#ffffff;fill-opacity:1;stroke:none;"
       x="908.79248"
       y="429.03445"
       id="text916"><tspan
         sodipodi:role="line"
         id="tspan914"
         x="908.79248"
         y="429.03445">8</tspan></text>
    <text
       xml:space="preserve"
       style="font-style:normal;font-weight:normal;font-size:40px;line-height:1.25;font-family:sans-serif;fill:#ffffff;fill-opacity:1;stroke:none;"
       x="985.56409"
       y="429.03445"
       id="text920"><tspan
         sodipodi:role="line"
         id="tspan918"
         x="985.56409"
         y="429.03445">9</tspan></text>
  </g>
</svg>
